<svg width="897" height="942" viewBox="0 0 897 942" fill="none" xmlns="http://www.w3.org/2000/svg">
<path d="M256.62 357.194H178.304C176.124 357.194 173.965 356.775 171.952 355.962C169.938 355.148 168.108 353.956 166.568 352.454C165.027 350.95 163.807 349.166 162.974 347.203C162.142 345.24 161.714 343.136 161.717 341.012V157.543C161.717 155.42 162.147 153.319 162.98 151.359C163.814 149.399 165.036 147.618 166.577 146.118C168.116 144.618 169.945 143.428 171.957 142.618C173.969 141.807 176.126 141.39 178.304 141.392H307.6C309.782 141.384 311.943 141.798 313.962 142.605C315.979 143.414 317.813 144.602 319.359 146.102C320.904 147.603 322.132 149.386 322.969 151.348C323.806 153.312 324.239 155.416 324.24 157.543V207.028" stroke="#CCDDE2" stroke-width="4.5" stroke-miterlimit="10"/>
<path d="M303.67 163.623H183.925C179.342 163.623 175.627 167.243 175.627 171.709V193.494C175.627 197.959 179.342 201.579 183.925 201.579H303.67C308.253 201.579 311.969 197.959 311.969 193.494V171.709C311.969 167.243 308.253 163.623 303.67 163.623Z" stroke="#CCDDE2" stroke-width="4.5" stroke-miterlimit="10"/>
<path d="M242.957 179.608C245.181 179.608 246.983 177.851 246.983 175.685C246.983 173.518 245.181 171.762 242.957 171.762C240.733 171.762 238.931 173.518 238.931 175.685C238.931 177.851 240.733 179.608 242.957 179.608Z" fill="#D7E8F0"/>
<path d="M231.703 193.452C231.609 191.957 231.829 190.459 232.351 189.049C232.874 187.64 233.686 186.349 234.74 185.258C235.793 184.166 237.065 183.296 238.476 182.701C239.887 182.107 241.409 181.8 242.947 181.8C244.484 181.8 246.006 182.107 247.417 182.701C248.828 183.296 250.1 184.166 251.154 185.258C252.207 186.349 253.019 187.64 253.542 189.049C254.064 190.459 254.285 191.957 254.19 193.452H231.703Z" fill="#D7E8F0"/>
<path d="M243.782 242.26C239.489 242.26 235.293 243.501 231.724 245.824C228.154 248.149 225.372 251.451 223.729 255.315C222.087 259.18 221.656 263.432 222.494 267.535C223.332 271.637 225.399 275.405 228.434 278.362C231.47 281.32 235.337 283.335 239.547 284.151C243.757 284.967 248.122 284.547 252.088 282.947C256.054 281.346 259.444 278.636 261.829 275.158C264.213 271.68 265.486 267.591 265.486 263.408C265.487 260.631 264.927 257.881 263.837 255.314C262.746 252.748 261.148 250.416 259.132 248.451C257.116 246.488 254.723 244.93 252.09 243.868C249.456 242.805 246.632 242.259 243.782 242.26ZM243.782 279.444C243.03 279.323 242.348 278.947 241.855 278.381C241.363 277.816 241.092 277.098 241.092 276.356C241.092 275.614 241.363 274.896 241.855 274.331C242.348 273.765 243.03 273.389 243.782 273.268C244.241 273.194 244.712 273.219 245.162 273.34C245.611 273.461 246.027 273.676 246.383 273.97C246.738 274.263 247.024 274.629 247.22 275.041C247.416 275.454 247.517 275.902 247.517 276.356C247.517 276.81 247.416 277.26 247.22 277.672C247.024 278.084 246.738 278.449 246.383 278.743C246.027 279.036 245.611 279.251 245.162 279.372C244.712 279.494 244.241 279.518 243.782 279.444ZM247.797 255.667C247.28 260.344 246.397 264.976 245.152 269.522C245.022 269.765 244.826 269.968 244.585 270.11C244.344 270.252 244.069 270.327 243.787 270.327C243.505 270.327 243.23 270.252 242.989 270.11C242.748 269.968 242.553 269.765 242.422 269.522C241.431 266.171 240.672 262.758 240.152 259.308C239.713 256.804 238.214 252.735 239.649 250.294C240.912 248.113 244.488 247.852 246.555 248.989C249.093 250.398 248.097 253.382 247.797 255.667Z" fill="#D7E8F0"/>
<path d="M189.258 218.524H295.275" stroke="#CCDDE2" stroke-width="4.5" stroke-miterlimit="10"/>
<path d="M189.258 228.697H295.275" stroke="#CCDDE2" stroke-width="4.5" stroke-miterlimit="10"/>
<path d="M189.258 294.166H295.275" stroke="#CCDDE2" stroke-width="4.5" stroke-miterlimit="10"/>
<path d="M213.886 303.788H270.648" stroke="#CCDDE2" stroke-width="4.5" stroke-miterlimit="10"/>
<path d="M844.22 317.987H681.708C668.178 317.987 657.209 328.675 657.209 341.859V612.3C657.209 625.485 668.178 636.172 681.708 636.172H844.22C857.75 636.172 868.719 625.485 868.719 612.3V341.859C868.719 328.675 857.75 317.987 844.22 317.987Z" fill="#3FBDF1"/>
<path d="M622.076 317.987H508.917C495.386 317.987 484.417 328.675 484.417 341.859V612.3C484.417 625.485 495.386 636.172 508.917 636.172H622.076C635.607 636.172 646.576 625.485 646.576 612.3V341.859C646.576 328.675 635.607 317.987 622.076 317.987Z" fill="#3FBDF1"/>
<path d="M493.787 797.972H867.552C874.01 797.969 880.203 795.469 884.77 791.02C889.338 786.571 891.907 780.539 891.912 774.246V322.181C891.913 319.064 891.284 315.977 890.061 313.096C888.837 310.215 887.042 307.599 884.781 305.394C882.518 303.19 879.831 301.442 876.876 300.249C873.92 299.057 870.751 298.443 867.552 298.446H613.542L547.154 298.832H546.961L513.392 300.104H513.285L504.451 300.438H503.67L503.017 305.561L501.732 315.087C501.746 315.104 501.753 315.126 501.753 315.149C501.753 315.171 501.746 315.193 501.732 315.212L491.281 330.298L489.139 333.355L483.239 370.143V370.321C483.111 370.269 482.982 370.195 482.822 370.112C482.693 370.039 482.571 369.956 482.458 369.862C480.473 368.405 478.981 366.403 478.175 364.113C476.215 359.272 475.744 352.855 475.723 347.764L474.438 375.715V375.819L472.649 413.16L472.21 423.186C473.046 421.736 474.245 419.649 475.637 417.156L471.193 444.825L470.272 464.763L467.981 515.145L467.895 517.024V517.743L467.296 530.013V530.295C467.296 530.295 465.582 566.3 465.582 566.352L465.422 569.691L463.441 584.266L457.659 625.05V774.246C457.66 778.497 458.835 782.669 461.063 786.324C463.29 789.979 466.486 792.983 470.315 795.019C477.564 798.848 485.584 798.337 493.551 798.076C495.693 798.014 497.834 797.92 499.976 797.805" fill="#3FBDF1"/>
<path d="M479.599 790.19C479.449 790.19 479.288 790.054 479.106 790.002C477.071 789.291 475.147 788.307 473.388 787.08C470.303 784.945 467.79 782.118 466.059 778.839C464.329 775.561 463.43 771.925 463.441 768.238V569.129L457.659 571.831L457.295 572.008L456.513 570.12L452.647 560.73L451.577 558.132L441.8 534.354C441.8 534.354 460.368 461.154 472.65 413.161C477.147 395.539 480.809 381.308 482.351 375.33C482.822 373.546 483.1 372.502 483.154 372.325C483.158 372.283 483.158 372.241 483.154 372.2C483.186 371.844 483.13 371.487 482.993 371.156C482.841 370.771 482.658 370.398 482.447 370.04C482.423 369.966 482.386 369.895 482.34 369.831C481.067 367.721 479.635 365.705 478.057 363.801L476.022 339.251L476.354 339.001L477.896 337.801L488.433 329.663L490.885 323.34L495.693 311.05L497.834 305.573H502.931H504.237H513.457L547.529 305.468H550.452L615.095 305.093H862.434C865.548 305.093 868.632 305.69 871.509 306.853C874.387 308.015 877 309.719 879.201 311.866C881.401 314.013 883.147 316.562 884.335 319.367C885.524 322.172 886.134 325.178 886.13 328.213V768.238C886.134 771.273 885.524 774.278 884.335 777.083C883.147 779.888 881.401 782.437 879.201 784.585C877 786.732 874.387 788.435 871.509 789.597C868.632 790.759 865.548 791.358 862.434 791.358H494.236" fill="#3FBDF1"/>
<path d="M504.344 299.061L513.103 299.009H513.285L546.908 298.832H547.143L613.531 298.446H867.552C874.012 298.448 880.206 300.95 884.774 305.4C889.342 309.851 891.909 315.887 891.912 322.181V774.246C891.907 780.539 889.338 786.571 884.77 791.02C880.203 795.469 874.01 797.969 867.552 797.972H481.355C475.062 797.972 469.026 795.536 464.577 791.2C460.127 786.863 457.626 780.983 457.626 774.852V725.492" stroke="black" stroke-width="4.5" stroke-miterlimit="10"/>
<path d="M844.22 659.539H508.917C495.386 659.539 484.417 670.227 484.417 683.411V749.777C484.417 762.962 495.386 773.649 508.917 773.649H844.22C857.75 773.649 868.719 762.962 868.719 749.777V683.411C868.719 670.227 857.75 659.539 844.22 659.539Z" fill="white"/>
<path d="M733.362 684.959H516.765C512.183 684.959 508.467 688.579 508.467 693.045V741.789C508.467 746.255 512.183 749.875 516.765 749.875H733.362C737.945 749.875 741.661 746.255 741.661 741.789V693.045C741.661 688.579 737.945 684.959 733.362 684.959Z" fill="#3FBDF1"/>
<path d="M694.504 712.303C698.312 712.303 701.399 709.295 701.399 705.584C701.399 701.873 698.312 698.865 694.504 698.865C690.695 698.865 687.608 701.873 687.608 705.584C687.608 709.295 690.695 712.303 694.504 712.303Z" fill="white"/>
<path d="M675.251 735.963C675.251 730.984 677.281 726.206 680.896 722.684C684.511 719.163 689.413 717.183 694.525 717.183C699.637 717.183 704.539 719.163 708.154 722.684C711.769 726.206 713.799 730.984 713.799 735.963H675.251Z" fill="white"/>
<path d="M800.489 684.967C793.774 684.961 787.207 686.896 781.621 690.526C776.035 694.157 771.679 699.321 769.106 705.365C766.532 711.408 765.856 718.06 767.162 724.477C768.47 730.896 771.701 736.792 776.448 741.42C781.195 746.048 787.244 749.2 793.83 750.477C800.415 751.755 807.243 751.1 813.447 748.596C819.651 746.093 824.953 741.852 828.683 736.411C832.413 730.97 834.403 724.573 834.401 718.031C834.402 713.689 833.526 709.391 831.822 705.38C830.12 701.37 827.622 697.725 824.472 694.655C821.323 691.585 817.585 689.149 813.47 687.487C809.355 685.825 804.944 684.969 800.489 684.967ZM800.489 743.112C799.818 743.143 799.148 743.039 798.518 742.811C797.889 742.581 797.314 742.23 796.828 741.778C796.342 741.326 795.956 740.783 795.691 740.181C795.427 739.579 795.291 738.931 795.291 738.276C795.291 737.621 795.427 736.973 795.691 736.371C795.956 735.769 796.342 735.227 796.828 734.774C797.314 734.322 797.889 733.971 798.518 733.742C799.148 733.513 799.818 733.409 800.489 733.441C801.766 733.498 802.97 734.032 803.853 734.934C804.735 735.834 805.227 737.031 805.227 738.276C805.227 739.521 804.735 740.718 803.853 741.618C802.97 742.52 801.766 743.054 800.489 743.112ZM806.732 705.918C805.661 713.096 804.794 720.629 802.599 727.577C802.106 729.257 798.862 729.257 798.315 727.577C796.76 722.341 795.571 717.007 794.761 711.614C794.075 707.702 791.73 701.337 793.979 697.54C795.96 694.128 801.549 693.721 804.762 695.453C808.766 697.665 807.16 702.349 806.732 705.918Z" fill="#3FBDF1"/>
<path d="M836.531 547.999C834.887 561.823 829.013 574.846 819.675 585.376C810.337 595.907 797.965 603.457 784.166 607.049C770.367 610.641 755.779 610.106 742.296 605.516C728.812 600.925 717.057 592.49 708.556 581.306C700.057 570.123 695.204 556.707 694.628 542.801C694.053 528.897 697.782 515.143 705.331 503.33C712.881 491.516 723.902 482.187 736.962 476.554C750.022 470.921 764.52 469.244 778.57 471.742C779.188 471.858 779.775 472.097 780.294 472.442C780.815 472.787 781.256 473.233 781.592 473.75C781.928 474.269 782.152 474.849 782.249 475.454C782.346 476.06 782.315 476.679 782.157 477.272L780.755 482.603L768.184 530.429C767.983 531.192 767.992 531.993 768.209 532.751C768.427 533.509 768.845 534.199 769.423 534.75C770 535.3 770.715 535.693 771.498 535.889C772.281 536.085 773.102 536.077 773.88 535.865L822.676 522.573L829.346 520.758C829.941 520.595 830.563 520.55 831.175 520.626C831.787 520.702 832.378 520.897 832.911 521.2C833.444 521.503 833.91 521.906 834.28 522.388C834.65 522.869 834.917 523.419 835.064 524.002C836.985 531.858 837.482 539.979 836.531 547.999Z" fill="white"/>
<path d="M838.213 498.712C838.444 499.294 838.546 499.918 838.513 500.543C838.481 501.167 838.315 501.777 838.025 502.335C837.736 502.893 837.329 503.385 836.832 503.779C836.336 504.175 835.758 504.463 835.139 504.628L830.546 505.88L790.809 516.699C790.031 516.91 789.21 516.918 788.427 516.722C787.644 516.526 786.929 516.133 786.352 515.583C785.775 515.032 785.356 514.342 785.138 513.585C784.921 512.826 784.913 512.026 785.113 511.263L795.382 472.326L796.367 468.591C796.522 467.997 796.8 467.44 797.186 466.956C797.57 466.472 798.054 466.071 798.606 465.777C799.158 465.484 799.765 465.303 800.392 465.249C801.018 465.195 801.649 465.267 802.245 465.461C810.33 468.179 817.722 472.554 823.926 478.289C830.13 484.025 835.001 490.988 838.213 498.712Z" fill="white"/>
<path d="M764.8 380.209C775.611 380.209 784.374 371.671 784.374 361.137C784.374 350.605 775.611 342.065 764.8 342.065C753.99 342.065 745.226 350.605 745.226 361.137C745.226 371.671 753.99 380.209 764.8 380.209Z" fill="#D7E8F0"/>
<path d="M837.003 403.288H694.514V407.106H837.003V403.288Z" fill="#D7E8F0"/>
<path d="M837.003 417.413H694.514V421.232H837.003V417.413Z" fill="#D7E8F0"/>
<path d="M837.003 430.292H694.514V434.111H837.003V430.292Z" fill="#D7E8F0"/>
<path d="M621.627 483.062H510.009V486.881H621.627V483.062Z" fill="#D7E8F0"/>
<path d="M621.627 498.472H510.009V502.291H621.627V498.472Z" fill="#D7E8F0"/>
<path d="M621.627 513.873H510.009V517.691H621.627V513.873Z" fill="#D7E8F0"/>
<path d="M621.627 529.283H510.009V533.101H621.627V529.283Z" fill="#D7E8F0"/>
<path d="M621.627 544.692H510.009V548.51H621.627V544.692Z" fill="#D7E8F0"/>
<path d="M494.697 374.558C494.697 374.558 528.619 426.609 567.274 442.969C605.929 459.328 618.007 466.559 632.795 460.706C647.582 454.852 675.968 446.652 695.971 388.716C715.973 330.779 725.503 300.283 726.209 286.25C726.916 272.217 687.147 283.746 687.147 283.746C687.147 283.746 665.732 345.25 618.81 372.7L551.983 303.924L494.697 374.558Z" fill="white"/>
<path d="M455.057 454.55L482.361 461.77C482.361 461.77 450.656 504.369 478.849 548.971C507.043 593.574 565.1 683.561 565.1 683.561L676.225 855.711L572.296 841.595L494.697 758.775L455.078 720.286L405.426 569.264L455.057 454.55Z" fill="white"/>
<path d="M9.22829 674.693C11.6834 675.986 14.5252 676.404 17.2625 675.872C19.9999 675.341 22.4608 673.893 24.2191 671.782L64.6302 623.507L97.2353 583.631L70.5408 569.024C67.7761 567.502 64.5038 567.113 61.4446 567.94C58.3843 568.767 55.7866 570.745 54.2222 573.437L4.47405 658.573C3.68157 659.932 3.17562 661.43 2.98599 662.981C2.79635 664.533 2.92677 666.106 3.36965 667.607C3.81252 669.109 4.55896 670.51 5.56506 671.726C6.57116 672.943 7.81658 673.951 9.22829 674.693Z" fill="#2E2E2E"/>
<path d="M624.346 902.4L657.979 934.639C660.882 937.428 664.793 938.994 668.869 939H752.979C755.588 939.01 758.143 938.28 760.334 936.9C762.525 935.518 764.255 933.545 765.314 931.222C766.373 928.899 766.716 926.325 766.299 923.816C765.883 921.307 764.726 918.969 762.969 917.09C760.758 914.68 757.703 913.162 754.403 912.833L707.749 908.169L624.346 902.4Z" fill="#2E2E2E"/>
<path d="M317.205 499.169C317.205 499.169 382.255 516.801 425.621 522.06C468.987 527.318 465.946 509.79 465.946 509.79L471.247 487.651C485.167 465.553 493.251 418.54 493.251 418.54L498.841 381.763L507 395.754L533.373 421.639L533.694 421.889C532.891 409.526 533.502 392.154 536.457 368.492C543.267 313.717 565.818 320.071 565.818 320.071L562.509 316.534C546.929 291.275 497.192 264.576 481.301 258.191C465.411 251.805 472.21 260.851 474.234 267.581C476.258 274.31 470.476 293.247 447.315 283.606C424.154 273.966 422.987 252.995 422.987 252.995H412.226C346.212 260.726 312.643 295.031 312.643 295.031C382.769 311.15 366.675 369.107 366.675 369.107L360.314 374.773C335.419 395.806 333.684 416.088 335.836 424.539C337.989 432.99 353.344 444.363 381.066 450.957C408.788 457.55 413.832 457.561 420.096 445.886C426.36 434.211 433.663 432.771 443.653 431.019C453.643 429.266 465.882 436.183 463.087 441.629C460.293 447.075 458.269 442.318 465.229 457.029C472.189 471.74 468.955 479.22 450.238 492.773C431.521 506.326 348.3 498.72 348.3 498.72C308.499 487.995 317.205 499.169 317.205 499.169Z" fill="#2E2E2E"/>
<path d="M469.352 253.342V255.565V256.128C487.957 260.658 505.48 268.674 520.942 279.728C523.447 281.512 525.889 283.328 528.298 285.237C528.362 277.568 527.687 269.869 525.15 262.607C523.094 256.375 519.221 250.862 514.003 246.738C509.409 243.17 503.98 240.885 498.519 238.819C493.059 236.753 487.694 234.938 482.683 232.152C478.46 229.902 474.771 226.808 471.857 223.075C470.836 221.725 470.199 220.136 470.01 218.469C469.823 216.802 470.09 215.116 470.786 213.581C470.294 213.548 469.809 213.454 469.341 213.299L469.352 253.342Z" fill="#3FBDF1"/>
<path d="M469.352 253.342V255.565V256.128C487.957 260.658 505.48 268.674 520.942 279.728C523.447 281.512 525.889 283.328 528.298 285.237C528.362 277.568 527.687 269.869 525.15 262.607C523.094 256.375 519.221 250.862 514.003 246.738C509.409 243.17 503.98 240.885 498.519 238.819C493.059 236.753 487.694 234.938 482.683 232.152C478.46 229.902 474.771 226.808 471.857 223.075C470.836 221.725 470.199 220.136 470.01 218.469C469.823 216.802 470.09 215.116 470.786 213.581C470.294 213.548 469.809 213.454 469.341 213.299L469.352 253.342Z" fill="#3FBDF1"/>
<path d="M212.29 426.557C219.281 431.432 227.053 435.144 235.29 437.543C238.834 438.608 242.434 439.485 246.073 440.173C231.693 407.151 242.454 363.707 287.834 317.383C295.603 309.438 303.876 301.974 312.601 295.035C326.703 283.861 339.231 275.535 354.007 268.837C360.623 265.862 367.417 263.281 374.352 261.106C386.65 257.117 399.344 254.399 412.226 252.999C415.149 252.655 418.04 252.404 420.963 252.248C420.25 247.356 420.391 242.382 421.381 237.537C424.079 224.234 428.78 216.587 437.325 206.101C442.678 199.497 451.041 183.722 439.894 178.276C432.859 174.864 432.217 167.842 435.526 163.669C438.32 160.038 443.974 158.379 450.945 162.626C455.763 165.63 461.481 165.818 467.007 164.347C471.298 161.911 475.018 158.628 477.928 154.707C486.024 143.407 486.313 126.286 473.645 117.992C466.739 113.453 457.937 112.358 449.681 113.234C445.985 113.63 442.341 114.406 438.813 115.551C438.798 115.543 438.781 115.54 438.765 115.54C438.748 115.54 438.732 115.543 438.717 115.551C423.726 123.407 413.072 137.93 407.932 154.3C404.912 163.972 401.507 173.549 397.524 182.939C394.247 190.639 391.967 199.998 384.675 205.256C381.627 207.452 378.167 209.048 374.491 209.951C360.711 218.465 341.597 213.551 326.531 211.735C314.486 210.131 302.223 211.331 290.746 215.241C277.897 221.574 266.846 231.684 257.884 244.83C243.075 266.583 258.751 297.946 233.984 315.098C226.489 320.263 217.923 323.393 209.731 327.399C198.038 333.189 188.594 341.421 185.103 354.098C178.207 379.67 190.479 411.126 212.29 426.557Z" fill="#3FBDF1"/>
<path d="M817.868 938.998H231.896" stroke="black" stroke-width="4.5" stroke-miterlimit="10"/>
<path d="M490.842 144.406C492.348 147.446 493.635 150.584 494.697 153.796C496.239 159.013 494.568 162.247 496.913 167.224C497.716 168.945 498.873 171.856 500.126 174.798C500.479 174.11 500.8 173.546 500.993 173.108C510.18 153.17 498.102 143.561 492.288 140.274C491.917 141.687 491.434 143.068 490.842 144.406Z" fill="#3FBDF1"/>
<path d="M490.842 144.406C492.348 147.446 493.635 150.584 494.697 153.796C496.239 159.013 494.568 162.247 496.913 167.224C497.716 168.945 498.873 171.856 500.126 174.798C500.479 174.11 500.8 173.546 500.993 173.108C510.18 153.17 498.102 143.561 492.288 140.274C491.917 141.687 491.434 143.068 490.842 144.406Z" fill="#3FBDF1"/>
<path d="M287.266 480.768C281.655 523.878 286.195 598.664 376.804 655.88C393.112 666.178 407.793 680.722 422.173 693.294C461.395 727.83 498.707 764.369 533.951 802.761C555.528 826.069 577.553 850.566 599.429 874.166C610.644 886.227 621.98 898.176 633.437 910.015C641.875 918.685 655.26 938.989 668.826 938.989H752.197C759.692 938.989 766.503 933.01 766.396 925.676C766.335 922.506 765.103 919.465 762.926 917.11C760.715 914.7 757.66 913.182 754.36 912.853L707.706 908.189L482.297 558.903C470.669 540.874 460.357 511.202 469.352 491.764C503.616 417.834 500.672 346.178 500.672 346.178" stroke="black" stroke-width="4.5" stroke-miterlimit="10"/>
<path d="M403.97 678.353C394.14 712 378.271 746.169 365.165 767.683C360.416 775.537 354.155 782.424 346.726 787.965C319.871 808.008 281.912 805.869 256.16 784.512L128.084 678.29L64.6409 623.505L24.2298 671.78C22.3195 674.045 19.6061 675.529 16.6267 675.941C13.6474 676.352 10.6181 675.66 8.13685 674.001C5.65565 672.342 3.90289 669.836 3.22477 666.98C2.54665 664.124 2.99241 661.123 4.47394 658.571L54.2329 573.456C55.7973 570.763 58.395 568.786 61.4553 567.959C64.5145 567.131 67.7868 567.521 70.5515 569.043L97.246 583.65L250.196 667.116C252.74 668.503 255.586 669.282 258.5 669.388C261.414 669.495 264.312 668.926 266.956 667.727C269.599 666.53 271.914 664.737 273.708 662.498C275.502 660.258 276.725 657.636 277.276 654.847L295.393 562.282" stroke="black" stroke-width="4.5" stroke-miterlimit="10"/>
<path d="M469.352 207.1V253.006V255.229V255.792C474.202 262.678 476.643 272.485 472.018 279.789C465.818 289.586 452.133 287.958 443.46 282.48C440.907 280.872 438.47 279.094 436.168 277.159C428.448 270.624 423.451 261.561 422.12 251.681C421.406 246.789 421.548 241.816 422.537 236.97C425.257 223.678 429.947 216.041 438.502 205.524C443.856 198.951 452.208 183.155 441.051 177.709C427.977 171.355 437.035 152.763 452.101 162.059C463.794 169.289 480.595 160.275 487.533 150.582C495.628 139.283 495.917 122.162 483.25 113.868C476.344 109.329 467.542 108.234 459.286 109.11C434.134 111.802 416.23 130.957 409.067 153.744C406.047 163.415 402.642 172.993 398.659 182.383C395.382 190.083 393.102 199.442 385.81 204.7C371.889 214.81 351.823 209.52 336.115 207.642C303.413 203.73 277.04 217.846 259.019 244.274C244.21 266.027 259.886 297.39 235.119 314.542C227.624 319.706 219.058 322.836 210.866 326.843C199.173 332.633 189.729 340.865 186.292 353.542C179.353 379.082 191.646 410.539 213.436 425.97C223.426 433.044 235.119 437.269 247.262 439.585" stroke="black" stroke-width="4.5" stroke-miterlimit="10"/>
<path d="M533.909 291.183C533.973 290.599 533.994 290.035 534.026 289.482C534.572 279.393 534.508 268.939 531.135 259.226C529.065 253.001 525.19 247.492 519.978 243.367C515.373 239.809 509.945 237.503 504.505 235.438C499.065 233.372 493.669 231.577 488.668 228.781C484.435 226.54 480.743 223.441 477.843 219.694C476.827 218.348 476.192 216.764 476.004 215.102C475.816 213.441 476.081 211.76 476.772 210.231" stroke="black" stroke-width="4.5" stroke-miterlimit="10"/>
<path d="M459.211 196.75C463.002 202.029 468.142 207.726 474.62 209.781C483.004 212.442 488.647 205.503 491.656 198.753C493.455 194.736 494.697 190.459 496.153 186.306C496.624 184.939 496.913 184.282 498.519 184.219C500.126 184.157 501.817 184.47 503.466 184.47C503.584 184.467 503.699 184.433 503.798 184.374C503.898 184.314 503.98 184.23 504.036 184.129C504.091 184.028 504.119 183.915 504.114 183.8C504.11 183.686 504.075 183.575 504.013 183.479C501.796 180.192 498.487 171.23 496.817 167.641C494.493 162.664 496.174 159.44 494.611 154.213C493.547 151.004 492.267 147.867 490.778 144.823" stroke="black" stroke-width="4.5" stroke-miterlimit="10"/>
<path d="M493.251 135.172C493.251 135.172 516.112 143.717 504.302 169.394C503.573 170.948 501.785 174.193 500.939 175.654" stroke="black" stroke-width="4.5" stroke-miterlimit="10"/>
<path d="M739.84 61.964C739.84 61.964 739.969 62.0266 740.226 62.1205L739.84 61.964Z" fill="#3FBDF1"/>
<path d="M491.988 198.012C490.158 198.258 488.299 197.843 486.759 196.849C485.219 195.854 484.106 194.346 483.625 192.608" stroke="black" stroke-width="4.5" stroke-miterlimit="10"/>
<path d="M495.853 163.626C491.12 159.87 485.927 164.67 482.758 168.154" stroke="black" stroke-width="4.5" stroke-miterlimit="10"/>
<path d="M422.152 251.691C406.278 252.67 390.601 255.64 375.509 260.528C350.881 268.394 333.92 278.546 313.8 294.457C305.076 301.41 296.804 308.884 289.033 316.836C243.61 363.16 232.871 406.625 247.272 439.636C258.976 466.533 285.96 483.216 313.607 491.719C331.692 497.27 350.538 499.659 369.448 500.191C391.988 500.817 414.72 499.983 436.907 495.809C446.255 494.057 457.027 492.617 462.606 484.155C468.184 475.694 468.655 464.28 464.512 455.213C460.625 446.773 450.131 437.696 440.644 444.321C439.592 445.061 438.727 446.024 438.113 447.137C437.499 448.251 437.152 449.485 437.1 450.748" stroke="black" stroke-width="4.5" stroke-miterlimit="10"/>
<path d="M405.009 307.509C406.186 342.106 376.098 361.397 376.098 361.397C366.118 369.274 356.417 377.736 348.257 387.428C343.043 393.615 338.203 400.543 335.804 408.295C334.011 413.581 334.042 419.293 335.89 424.56C337.934 429.432 341.312 433.661 345.655 436.788C353.772 442.975 363.644 446.178 373.431 448.953C384.215 451.96 395.199 454.24 406.304 455.777C412.729 456.674 415.438 454.733 418.372 449.319C421.027 444.415 423.201 438.739 428.116 435.536C434.926 431.081 444.07 430.048 451.951 431.884C464.105 434.701 467.21 444.091 457.305 445.99" stroke="black" stroke-width="4.5" stroke-miterlimit="10"/>
<path d="M397.588 542.228L212.933 498.753L168.988 675.952L348.525 719.438L354.286 716.861L397.588 542.228Z" fill="white"/>
<path d="M312.386 517.316C321.145 457.574 340.13 442.801 352.487 439.848L351.673 439.41C314.367 425.262 288.497 495.26 283.004 511.629L312.386 517.316Z" fill="#D7E8F0"/>
<path d="M311.872 522.05C320.631 462.309 340.13 442.757 352.487 439.846L351.673 439.408C314.367 425.26 287.427 498.627 281.912 514.987L311.872 522.05Z" fill="#D7E8F0"/>
<path d="M351.673 439.408C309.485 423.424 281.912 514.987 281.912 514.987L311.894 522.05C329.315 430.237 366.696 446.93 366.696 446.93C365.379 446.544 351.673 439.408 351.673 439.408Z" stroke="black" stroke-width="4.5" stroke-miterlimit="10"/>
<path d="M210.876 507.198L168.994 676.009L314.675 710.324L356.556 541.513L210.876 507.198Z" fill="#3FBDF1"/>
<path d="M213.099 498.262L168.998 676.017L322.39 712.148L366.491 534.393L213.099 498.262Z" fill="white"/>
<path d="M213.821 511.782L175.839 664.873C174.763 669.213 177.501 673.583 181.955 674.632L311.504 705.147C315.958 706.196 320.443 703.527 321.52 699.187L359.502 546.096C360.579 541.755 357.84 537.385 353.385 536.337L223.837 505.822C219.383 504.773 214.899 507.44 213.821 511.782Z" fill="#3FBDF1"/>
<path d="M212.963 498.816L169 676.014L322.393 712.144L366.355 534.947L212.963 498.816Z" stroke="black" stroke-width="4.5" stroke-miterlimit="10"/>
<path d="M366.999 535.088L323.036 712.285L353.657 719.498L397.619 542.3L366.999 535.088Z" fill="white"/>
<path d="M366.999 535.088L323.036 712.285L353.657 719.498L397.619 542.3L366.999 535.088Z" stroke="black" stroke-width="4.5" stroke-miterlimit="10"/>
<path d="M353.643 719.44L343.782 694.724L323.019 712.231" stroke="black" stroke-width="4.5" stroke-miterlimit="10"/>
<path d="M382.287 538.632L343.782 694.725" stroke="black" stroke-width="4.5" stroke-miterlimit="10"/>
<path d="M720.074 251.182C719.496 251.275 719.003 251.369 718.371 251.495C712.578 252.479 707.087 254.727 702.31 258.068C697.074 262.011 692.319 268.866 690.006 274.761C686.508 283.713 682.664 292.518 678.474 301.178C672.148 314.527 664.623 327.305 655.988 339.364C647.025 351.633 636.264 364.07 622.708 371.707C621.007 372.709 619.214 373.558 617.354 374.242C615.073 375.181 582.982 339.207 579.449 335.201C565.282 319.144 550.634 303.244 534.026 289.503C529.818 285.997 525.46 282.617 520.984 279.456C505.512 268.392 487.979 260.366 469.362 255.824" stroke="black" stroke-width="4.5" stroke-miterlimit="10"/>
<path d="M777.81 249.865C777.873 249.881 777.94 249.881 778.003 249.865C792.844 251.555 787.029 267.142 776.589 266.642C765.057 266.078 753.557 266.642 742.057 266.829C738.886 266.728 735.731 267.294 732.805 268.488C727.023 271.18 726.477 277.19 725.61 282.636C724.453 289.772 723.136 296.909 721.584 303.982C718.564 318.005 714.838 331.839 710.565 345.549C707.803 354.438 704.751 363.285 701.539 372.039C692.159 397.83 680.337 425.186 660.453 445.072C649.467 456.09 635.076 464.228 618.853 463.038C596.014 461.379 574.041 450.205 554.671 437.498C554.59 437.443 554.514 437.381 554.446 437.31C547.216 432.568 540.286 427.404 533.694 421.848C533.694 421.848 507 398.686 498.841 381.721" stroke="black" stroke-width="4.5" stroke-miterlimit="10"/>
<path d="M820.009 235.847V237.307C820.009 247.386 811.679 249.118 804.483 249.285L665.207 252.415C659.104 252.571 653.975 247.365 653.846 240.865V240.594C653.846 234.219 658.643 228.919 664.672 228.773C664.672 228.773 742.582 226.634 802.92 225.017C804.065 228.575 806.871 231.329 810.351 233.478C813.259 235.182 816.62 236.006 820.009 235.847Z" stroke="black" stroke-width="4.5" stroke-miterlimit="10"/>
<path d="M894 92.2498C893.999 93.9108 893.595 95.5478 892.822 97.0283L830.578 221.446C829.847 222.883 828.805 224.15 827.524 225.158C826.243 226.167 824.754 226.893 823.158 227.288C820.586 227.923 817.866 227.648 815.48 226.516C813.573 225.602 811.968 224.186 810.846 222.429C809.723 220.671 809.129 218.643 809.13 216.573C809.14 214.917 809.528 213.286 810.265 211.795L872.542 87.367C873.674 85.1447 875.542 83.3606 877.845 82.3027C880.149 81.2458 882.75 80.9777 885.229 81.5411C887.708 82.1055 889.919 83.4691 891.503 85.4108C893.088 87.3524 893.952 89.7583 893.957 92.2394L894 92.2498Z" stroke="black" stroke-width="4.5" stroke-miterlimit="10"/>
<path d="M724.625 66.66C743.513 66.66 758.825 51.7401 758.825 33.3357C758.825 14.9313 743.513 0.0117035 724.625 0.0117035C705.736 0.0117035 690.424 14.9313 690.424 33.3357C690.424 51.7401 705.736 66.66 724.625 66.66Z" fill="#3FBDF1"/>
<path d="M713.756 44.8011C712.622 44.3875 711.561 43.8069 710.608 43.0796C708.93 41.8464 707.776 40.0552 707.365 38.0467C706.955 36.0383 707.316 33.9528 708.381 32.1872C709.075 31.0406 710.033 30.0668 711.18 29.3427C712.327 28.6184 713.63 28.1635 714.988 28.0139C714.235 26.291 714.079 24.3763 714.542 22.5592C715.006 20.7422 716.064 19.1217 717.556 17.9428C719.05 16.764 720.896 16.091 722.817 16.0256C724.737 15.9603 726.627 16.506 728.201 17.5806C731.51 19.8237 733.801 23.778 735.204 27.3879C735.928 29.2835 736.459 31.2439 736.789 33.241C736.949 34.2843 738.042 40.0226 737.185 40.6069C731.531 44.4255 721.005 47.4929 713.756 44.8011Z" fill="white"/>
<g opacity="0.72">
<path opacity="0.72" d="M695.767 136.174C706.163 136.174 714.591 127.963 714.591 117.832C714.591 107.703 706.163 99.4905 695.767 99.4905C685.371 99.4905 676.943 107.703 676.943 117.832C676.943 127.963 685.371 136.174 695.767 136.174Z" fill="#3FBDF1"/>
<path opacity="0.72" d="M699.493 125.616C699.039 126.096 698.513 126.503 697.93 126.826C696.932 127.393 695.756 127.587 694.623 127.37C693.489 127.153 692.477 126.541 691.773 125.647C691.313 125.062 690.998 124.38 690.855 123.655C690.712 122.931 690.744 122.184 690.949 121.474C689.895 121.48 688.867 121.153 688.02 120.543C687.173 119.932 686.552 119.07 686.25 118.086C685.948 117.101 685.982 116.048 686.347 115.085C686.711 114.121 687.387 113.299 688.272 112.741C690.28 111.658 692.568 111.165 694.857 111.322C696.002 111.353 697.139 111.5 698.251 111.76C698.819 111.885 702.053 112.553 702.181 113.096C703.006 116.716 702.417 122.59 699.493 125.616Z" fill="white"/>
</g>
<path d="M801.741 77.8028L783.268 87.3983C776.567 90.8778 774.031 98.9929 777.602 105.521L787.45 123.521C791.021 130.05 799.349 132.521 806.05 129.041L824.523 119.446C831.224 115.966 833.76 107.852 830.188 101.323L820.341 83.3231C816.769 76.795 808.442 74.3233 801.741 77.8028Z" fill="#3FBDF1"/>
<path d="M809.141 123.926L822.515 116.978C825.303 115.519 827.387 113.046 828.309 110.096C829.232 107.145 828.92 103.96 827.441 101.234L818.874 85.584C817.38 82.8651 814.841 80.8337 811.813 79.9343C808.784 79.035 805.513 79.3407 802.716 80.7847L801.817 81.2542C798.476 85.7718 794.032 93.5029 800.746 95.9338C810.383 99.4499 807.567 104.719 803.958 111.469C800.896 117.134 800.114 123.759 809.141 123.926Z" fill="white"/>
<path d="M788.314 104.979C791.106 104.979 793.369 102.774 793.369 100.055C793.369 97.335 791.106 95.1304 788.314 95.1304C785.523 95.1304 783.26 97.335 783.26 100.055C783.26 102.774 785.523 104.979 788.314 104.979Z" fill="white"/>
<path d="M726.059 187.172C727.932 188.059 729.926 188.678 731.981 189.008C735.753 189.572 739.61 189.172 743.176 187.848C746.743 186.524 749.895 184.322 752.326 181.455C754.199 179.18 755.602 176.332 757.572 174.037C758.919 172.362 760.723 171.09 762.776 170.364C763.481 170.218 764.138 169.906 764.693 169.456C766.042 168.1 763.751 166.952 763.29 165.857C762.6 164.089 762.6 162.136 763.29 160.369C765.049 155.723 765.098 150.626 763.431 145.948C761.762 141.27 758.481 137.3 754.147 134.716C749.811 132.13 744.69 131.091 739.656 131.773C734.622 132.457 729.987 134.82 726.541 138.459C723.136 142.038 721.091 146.607 718.971 150.979C717.086 154.871 715.084 158.741 714.045 162.925C711.636 172.837 717.076 182.905 726.059 187.172Z" fill="#3FBDF1"/>
<path d="M745.184 151.961C747.816 151.961 749.949 149.882 749.949 147.318C749.949 144.753 747.816 142.675 745.184 142.675C742.552 142.675 740.419 144.753 740.419 147.318C740.419 149.882 742.552 151.961 745.184 151.961Z" fill="white"/>
<path d="M738.941 164.774C741.573 164.774 743.706 162.696 743.706 160.131C743.706 157.568 741.573 155.488 738.941 155.488C736.309 155.488 734.176 157.568 734.176 160.131C734.176 162.696 736.309 164.774 738.941 164.774Z" fill="white"/>
<path d="M733.084 176.793C735.716 176.793 737.849 174.714 737.849 172.15C737.849 169.586 735.716 167.507 733.084 167.507C730.452 167.507 728.319 169.586 728.319 172.15C728.319 174.714 730.452 176.793 733.084 176.793Z" fill="white"/>
<g opacity="0.54">
<path opacity="0.54" d="M618.703 206.088C620.151 205.901 621.583 205.612 622.987 205.222L639.112 200.798C644.049 199.442 649.242 197.939 652.743 194.277C659.232 187.485 657.134 176.697 654.617 167.745C652.569 160.421 650.516 153.097 648.46 145.773C647.047 140.723 645.591 135.59 642.774 131.166C639.958 126.742 635.504 122.945 630.193 122.131C626.285 121.536 622.323 122.559 618.5 123.571L603.027 127.744C597.952 129.09 592.598 130.603 589.043 134.39C582.725 141.119 584.76 151.678 587.18 160.473L593.358 182.957C597.149 196.468 604.248 207.861 618.703 206.088Z" fill="#3FBDF1"/>
<path opacity="0.54" d="M617.633 175.425C618.588 176.334 619.772 176.981 621.066 177.302C622.359 177.624 623.716 177.607 625.002 177.255C626.287 176.903 627.454 176.228 628.385 175.296C629.317 174.365 629.982 173.211 630.311 171.951L632.11 165.086L633.898 158.21C634.227 156.95 634.208 155.627 633.845 154.376C633.483 153.124 632.79 151.988 631.833 151.081C630.877 150.174 629.693 149.528 628.399 149.207C627.106 148.888 625.748 148.905 624.464 149.259L617.472 151.178L610.469 153.098C609.186 153.454 608.024 154.133 607.095 155.066C606.167 155.998 605.507 157.153 605.182 158.414C604.856 159.673 604.877 160.995 605.241 162.245C605.606 163.495 606.301 164.629 607.257 165.534L612.472 170.48L617.633 175.425Z" fill="white"/>
</g>
</svg>
